<?xml version="1.0" standalone="no"?>
<!DOCTYPE svg PUBLIC "-//W3C//DTD SVG 20010904//EN"
 "http://www.w3.org/TR/2001/REC-SVG-20010904/DTD/svg10.dtd">
<svg version="1.0" xmlns="http://www.w3.org/2000/svg"
 width="500.000000pt" height="500.000000pt" viewBox="0 0 500.000000 500.000000"
 preserveAspectRatio="xMidYMid meet">
<metadata>
Created by potrace 1.11, written by Peter Selinger 2001-2013
</metadata>
<g transform="translate(0.000000,500.000000) scale(0.100000,-0.100000)"
fill="#000000" stroke="none">
<path d="M4017 4974 c-3 -3 -67 -32 -142 -65 -205 -88 -617 -297 -785 -397
-19 -12 -48 -29 -65 -38 -259 -145 -770 -504 -1015 -714 -417 -358 -785 -765
-980 -1085 -21 -34 -22 -37 -4 -25 10 8 54 41 97 73 136 102 309 197 358 197
6 0 -12 -26 -39 -57 -130 -151 -260 -409 -366 -724 -44 -135 -115 -388 -123
-444 -2 -16 -6 -37 -9 -45 -19 -52 -41 -260 -27 -260 4 0 23 20 40 43 60 77
293 307 312 307 4 0 4 -28 1 -62 -11 -131 -1 -356 21 -486 5 -31 12 -75 15
-97 13 -84 75 -320 123 -463 58 -174 147 -386 220 -527 45 -88 51 -95 46 -60
-3 22 -7 63 -10 90 -3 28 -8 64 -10 80 -27 211 -27 790 0 1060 37 367 138 739
273 1010 72 145 193 321 266 388 32 29 8 20 -108 -41 -125 -66 -278 -161 -318
-199 l-26 -25 9 43 c41 180 162 438 293 624 116 165 292 344 452 461 57 42
104 78 104 80 0 4 -77 -2 -160 -12 -83 -10 -175 -37 -255 -75 -44 -21 -81 -36
-83 -34 -6 6 62 107 115 170 198 237 545 517 1062 855 168 110 674 420 686
420 2 0 19 9 37 20 19 11 26 20 17 20 -9 0 -18 -3 -22 -6z"/>
</g>
</svg>
